<svg xmlns="http://www.w3.org/2000/svg" width="22" height="22" viewBox="0 0 22 22">
    <g fill="none" fill-rule="evenodd">
        <g fill="#151515" fill-rule="nonzero">
            <path d="M18.61 10.355h-4.078c1.314-1.072 2.157-2.715 2.157-4.554 0-.356-.287-.645-.64-.645h-1.921v-.644c0-.356-.287-.645-.64-.645-.354 0-.64.289-.64.645v.644h-2.561V1.934C10.287.867 9.425 0 8.366 0h-1.28c-.354 0-.64.289-.64.645 0 .355.286.644.64.644h1.28c.353 0 .64.29.64.645v3.222h-2.56v-.644c0-.356-.288-.645-.641-.645-.354 0-.64.289-.64.645v.644H3.244c-.354 0-.64.289-.64.645 0 1.828.842 3.482 2.156 4.554H.64c-.353 0-.64.289-.64.645v10.355c0 .356.287.645.64.645h2.604c.276 0 .521-.178.608-.443l1.135-3.467h9.318l1.136 3.467c.086.265.331.443.608.443h2.56c.354 0 .641-.289.641-.645V11c0-.356-.287-.645-.64-.645zM3.929 6.441h11.435c-.31 2.207-2.181 3.914-4.437 3.914H8.366c-2.256 0-4.128-1.707-4.437-3.914zM2.78 20.711h-1.5V18.09h2.358l-.858 2.62zm6.225-3.91H1.28v-5.156h7.726V16.8zm8.964 3.91h-1.458l-.858-2.621h2.316v2.62zm0-3.91h-7.683v-5.156h7.683V16.8z" transform="translate(1)"/>
            <path d="M12.375 13.063c-.38 0-.688.307-.688.687v1.375c0 .38.308.688.688.688.38 0 .688-.308.688-.688V13.75c0-.38-.308-.688-.688-.688zM6.875 13.063c-.38 0-.688.307-.688.687v1.375c0 .38.308.688.688.688.38 0 .688-.308.688-.688V13.75c0-.38-.308-.688-.688-.688z" transform="translate(1)"/>
        </g>
    </g>
</svg>
