<svg xmlns="http://www.w3.org/2000/svg" width="22" height="22" viewBox="0 0 22 22">
    <g fill="none" fill-rule="evenodd">
        
        <path fill="#151515" fill-rule="nonzero" d="M21.46 11.39c.071-.203.11-.422.11-.65 0-.675-.34-1.27-.855-1.622V4.396c0-1.077-.868-1.954-1.934-1.954H3.22c-1.066 0-1.934.877-1.934 1.954v4.722C.77 9.47.43 10.065.43 10.74c0 .229.039.448.11.652H0v8.337h1.29v-1.994h19.42v1.994H22V11.39h-.54zM3.218 3.746H18.78c.356 0 .645.292.645.65v4.39h-1.287v-.65c0-1.078-.868-1.955-1.934-1.955h-3.916c-.495 0-.947.19-1.289.5-.342-.31-.794-.5-1.29-.5H5.796c-1.066 0-1.934.877-1.934 1.954v.652H2.574v-4.39c0-.36.29-.651.645-.651zm7.136 5.04H5.151v-.65c0-.36.289-.652.644-.652h3.916c.355 0 .644.292.644.651v.652zm1.29-.65c0-.36.289-.652.644-.652h3.916c.355 0 .644.292.644.651v.652h-5.204v-.652zm-9.926 2.604c0-.359.289-.65.644-.65h17.274c.355 0 .644.291.644.65 0 .36-.289.652-.644.652H2.363c-.355 0-.644-.292-.644-.652zm-.43 1.954h19.422v3.739H1.289v-3.739z"/>
    </g>
</svg>
